<svg xmlns="http://www.w3.org/2000/svg" width="16" height="16" viewBox="0 0 16 16" fill="none">
  <path d="M11.3333 4.00001H14.6666V5.33334H13.3333V14C13.3333 14.1768 13.263 14.3464 13.138 14.4714C13.013 14.5964 12.8434 14.6667 12.6666 14.6667H3.33325C3.15644 14.6667 2.98687 14.5964 2.86185 14.4714C2.73682 14.3464 2.66659 14.1768 2.66659 14V5.33334H1.33325V4.00001H4.66659V2.00001C4.66659 1.8232 4.73682 1.65363 4.86185 1.52861C4.98687 1.40358 5.15644 1.33334 5.33325 1.33334H10.6666C10.8434 1.33334 11.013 1.40358 11.138 1.52861C11.263 1.65363 11.3333 1.8232 11.3333 2.00001V4.00001ZM11.9999 5.33334H3.99992V13.3333H11.9999V5.33334ZM5.99992 2.66668V4.00001H9.99992V2.66668H5.99992Z" fill="#262626"/>
</svg>
