<svg xmlns="http://www.w3.org/2000/svg" width="16" height="16" viewBox="0 0 16 16" fill="none">
  <path d="M11.1713 1.99999L9.838 3.33333H3.33333V12.6667H12.6667V6.16199L14 4.82866V13.3333C14 13.5101 13.9298 13.6797 13.8047 13.8047C13.6797 13.9298 13.5101 14 13.3333 14H2.66667C2.48986 14 2.32029 13.9298 2.19526 13.8047C2.07024 13.6797 2 13.5101 2 13.3333V2.66666C2 2.48985 2.07024 2.32028 2.19526 2.19526C2.32029 2.07023 2.48986 1.99999 2.66667 1.99999H11.1713ZM13.6567 1.39999L14.6 2.34399L8.472 8.47199L7.53067 8.47399L7.52933 7.52933L13.6567 1.39999Z" fill="#262626"/>
</svg>
